<svg version="1.2" xmlns="http://www.w3.org/2000/svg" viewBox="0 0 1920 292" width="1920" height="292">
	<title>logo-svg</title>
	<style>
		.s0 { fill: #000000 } 
	</style>
	<path id="CouRseMNGR" class="s0" aria-label="CouRseMNGR"  d="m107.7 157c-27.4 0-50.3-19.4-55.7-45.2-0.8-3.8-1.3-7.8-1.3-11.8 0-3.8 0.4-7.6 1.2-11.2 5.2-26.1 28.3-45.8 55.8-45.8 23.6 0 43.8 14.4 52.5 34.8h24.4c-9.7-33.4-40.4-57.7-76.9-57.7-40.3 0-73.7 29.8-79.1 68.7-0.6 3.6-0.8 7.4-0.8 11.2 0 4 0.2 7.9 0.8 11.8 5.7 38.6 38.9 68.2 79.1 68.2 35.6 0 65.7-23.2 76.1-55.3h-24.7c-9.2 19.1-28.8 32.3-51.4 32.3zm203.5-113.5c31.3 0 56.8 25.4 56.8 56.7 0 31.3-25.5 56.8-56.8 56.8-31.3 0-56.8-25.5-56.8-56.8 0-31.3 25.5-56.7 56.8-56.7zm-79.8 56.7c0 44.1 35.8 79.8 79.8 79.8 44.1 0 79.8-35.7 79.8-79.8 0-44-35.7-79.7-79.8-79.7-44 0-79.8 35.7-79.8 79.7zm325.5-79.6v88c0 25.9-20.4 47.6-46.4 48.4-0.5 0-1.1 0-1.6 0-0.6 0-1.2 0-1.8 0-25.9-0.8-46.3-22.5-46.3-48.4v-88h-23v101.3c0 12 4.3 23.7 12.5 32.5 3.2 3.4 6.7 6.6 10.5 9.5 13.3 10.1 30 16.1 48.1 16.1 18 0 34.6-6 48-16.1 3.7-2.8 7.2-5.9 10.4-9.4 8.2-8.8 12.6-20.5 12.6-32.6v-101.3zm168 77.1l-2.7-4.5c0.1-0.1 0.3-0.2 0.4-0.3 0.1-0.1 0.1-0.1 0.2-0.2 0.4-0.2 0.8-0.5 1.2-0.8 0 0 0.1 0 0.1 0 0.4-0.3 0.9-0.6 1.3-0.9 0.9-0.6 1.8-1.3 2.7-2 0.2-0.2 0.5-0.4 0.7-0.5 0.3-0.3 0.7-0.6 1-0.9 0.5-0.3 0.9-0.7 1.4-1.1 0-0.1 0.1-0.1 0.1-0.1 0.4-0.3 0.7-0.6 1.1-1 1-0.9 2.1-1.8 3.1-2.8 10.7-10.6 18.4-24.2 21.8-39.4 1.2-5.6 1.9-11.4 1.9-17.4 0-1.9-0.1-3.8-0.2-5.6h-132.2v159.8h23v-74.4h29.6c0.6 0 1.1 0 1.7 0 0.3-0.1 0.5-0.1 0.8-0.1 0.5 0 0.9 0 1.4 0 0.1 0 0.2 0 0.3 0 0.6-0.1 1.2-0.1 1.8-0.2 0.1 0 0.1 0 0.1 0 0.7 0 1.3-0.1 2-0.1 0.6-0.1 1.1-0.2 1.6-0.2 0.3 0 0.5-0.1 0.7-0.1 0.5-0.1 1-0.1 1.6-0.2 0.2-0.1 0.4-0.1 0.6-0.1 0.4-0.1 0.8-0.1 1.2-0.2 1.3-0.3 2.7-0.5 4.1-0.8 0.6-0.2 1.2-0.3 1.8-0.5 0.1 0 0.2 0 0.4-0.1 0.4-0.1 0.8-0.2 1.2-0.3 0.1 0 0.2-0.1 0.3-0.1l1.3 2.1 45.9 75.3h26.9zm-22.9-19.8c-7.1 3.1-14.7 4.7-22.6 4.7h-29.6v-39.4h83.7c-2.8 8.6-7.6 16.5-14.2 23-5.1 5-11 9-17.3 11.7zm202.2 10.9h-45.7c-1.3-0.1-2.6-0.2-3.9-0.2-0.8 0-1.6 0-2.3 0.1-11.5-1.2-20.4-10.8-20.4-22.5 0-12.5 10.1-22.7 22.6-22.7h50.5c11.7 0.5 21.2 9.8 21.8 21.5h23c-0.2-7.8-2.3-15.1-6-21.5 0 0 0 0 0 0-7.7-13.4-22-22.5-38.5-22.9-0.4-0.1-0.7-0.1-1.1-0.1-0.4 0-0.8 0-1.2 0.1h-48.5c-17 0-31.7 9.2-39.6 22.9-3.8 6.7-6 14.4-6 22.7 0 8.2 2.2 15.9 6 22.6 1.9 3.3 4.2 6.4 6.9 9.1 8.3 8.6 19.9 13.9 32.7 13.9h49.7c12.5 0 22.6 10.1 22.6 22.6 0 12.5-10.1 22.6-22.6 22.6h-49.6c-12.1 0-22-9.5-22.7-21.4h-23c0.2 7.8 2.4 15.1 6 21.4 7.9 13.7 22.7 23 39.7 23h49.6c17 0 31.8-9.3 39.6-23 3.9-6.7 6-14.4 6-22.6 0-8.2-2.1-16-6-22.6-7.8-13.8-22.6-23-39.6-23zm118.2 17.2h102.5v-23h-102.5v-27.9h-23v124.9h141v-23h-118zm-23-85.4v23h141v-23zm188 159.4h23v-88.3l-23-23zm71.6-88.3l-71.6-71.7v32.6l23 23v-0.1l48.6 48.7 8.8-8.8 7.5-7.5 31.3-31.3v103.4h23v-158.9zm117.4 88.4h23v-88l-23-23zm103.5-159.4v103.2l-103.5-103.5v32.5l23 23 80.5 80.5 23 23v-158.7zm217.6 62.8h-79l10.6 23h45.4v50.6h-53.9c-28.7-3.8-50.9-27.7-50.9-56.5 0-28.8 22.2-52.7 50.9-56.5h76.6v-23h-68.5c-22.3 0-42.6 8.8-57.3 23-14.9 14.4-24.2 34.4-24.2 56.5 0 22.1 9.3 42.1 24.2 56.5 14.7 14.3 35 23 57.3 23h68.8zm145 14.4l-2.7-4.6c0.1-0.1 0.3-0.2 0.4-0.3 0.1 0 0.1 0 0.2-0.1 0.4-0.3 0.8-0.5 1.2-0.8 0 0 0.1 0 0.1 0 0.4-0.3 0.9-0.6 1.3-0.9 0.9-0.7 1.8-1.3 2.7-2 0.2-0.2 0.5-0.4 0.7-0.6 0.3-0.3 0.7-0.5 1-0.8 0.5-0.4 0.9-0.8 1.4-1.2 0 0 0.1 0 0.1-0.1 0.4-0.3 0.7-0.6 1.1-0.9 1-0.9 2.1-1.9 3-2.9 10.8-10.5 18.5-24.1 21.9-39.4 1.2-5.6 1.9-11.4 1.9-17.3 0-1.9-0.1-3.8-0.2-5.7h-132.2v159.9h23v-74.5h29.6c0.6 0 1.1 0 1.7 0 0.3 0 0.5 0 0.8 0 0.5 0 0.9 0 1.4-0.1 0.1 0 0.2 0 0.3 0 0.6 0 1.2 0 1.8-0.1 0.1 0 0.1 0 0.1 0 0.7 0 1.3-0.1 2-0.2 0.6 0 1.1-0.1 1.6-0.2 0.3 0 0.5 0 0.7 0 0.5-0.1 1-0.2 1.6-0.3 0.2 0 0.4 0 0.6-0.1 0.4 0 0.8-0.1 1.2-0.2 1.3-0.2 2.7-0.5 4.1-0.8 0.6-0.1 1.2-0.3 1.8-0.4 0.1 0 0.2-0.1 0.4-0.1 0.4-0.1 0.8-0.2 1.2-0.3 0.1-0.1 0.2-0.1 0.3-0.1l1.2 2 46 75.4h26.9zm-22.9-19.8c-7.1 3-14.7 4.6-22.6 4.6h-29.6v-39.4h83.7c-2.8 8.7-7.6 16.6-14.2 23.1-5.1 5-11 8.9-17.3 11.7z"/>
	<path id="Form 1" class="s0" d="m0 240h1920v20h-1920z"/>
</svg>